<?xml version="1.0" standalone="no"?>
<!DOCTYPE svg PUBLIC "-//W3C//DTD SVG 20010904//EN"
 "http://www.w3.org/TR/2001/REC-SVG-20010904/DTD/svg10.dtd">
<svg version="1.0" xmlns="http://www.w3.org/2000/svg"
 width="693.000000pt" height="849.000000pt" viewBox="0 0 693.000000 849.000000"
 preserveAspectRatio="xMidYMid meet">
<metadata>
Created by potrace 1.16, written by Peter Selinger 2001-2019
</metadata>
<g transform="translate(0.000000,849.000000) scale(0.100000,-0.100000)"
fill="#000000" stroke="none">
<path d="M3383 7737 c-157 -164 -265 -419 -264 -628 0 -100 23 -196 71 -294
59 -123 179 -271 201 -248 4 4 12 73 18 153 21 267 58 567 68 556 2 -2 9 -78
14 -168 16 -294 49 -525 74 -530 19 -4 106 117 151 208 24 50 51 122 59 160
19 91 19 281 -1 364 -16 71 -84 215 -145 312 -48 74 -146 178 -170 178 -9 0
-43 -28 -76 -63z"/>
<path d="M2480 7585 c-5 -13 -17 -61 -26 -106 -46 -226 23 -393 207 -502 62
-36 224 -95 235 -84 9 9 34 180 34 234 0 71 -18 148 -48 208 -52 104 -202 218
-340 259 l-53 15 -9 -24z"/>
<path d="M4360 7591 c-176 -57 -295 -165 -341 -310 -16 -51 -21 -93 -22 -186
0 -66 3 -140 8 -163 l7 -44 46 7 c163 24 335 156 387 297 17 44 20 75 18 178
-2 124 -19 231 -38 236 -6 2 -35 -5 -65 -15z"/>
<path d="M1712 7222 c-9 -25 7 -280 24 -360 49 -241 237 -425 482 -472 34 -7
65 -11 67 -8 9 9 -25 79 -99 202 -82 135 -109 186 -104 192 2 2 48 -52 101
-120 53 -68 118 -143 144 -167 l48 -44 7 40 c15 75 12 218 -7 280 -73 256
-299 442 -561 463 -79 6 -97 5 -102 -6z"/>
<path d="M5032 7225 c-87 -16 -198 -66 -268 -123 -95 -75 -182 -209 -220 -338
-25 -85 -21 -314 7 -314 21 0 98 83 191 207 54 73 101 133 104 133 7 0 -80
-169 -135 -258 -50 -84 -78 -149 -67 -159 10 -11 151 31 220 65 109 54 190
141 254 272 74 153 93 237 90 396 l-3 129 -50 2 c-27 1 -83 -4 -123 -12z"/>
<path d="M2645 6689 c-4 -5 -9 -72 -12 -147 -6 -158 6 -234 58 -358 26 -63 46
-92 103 -149 106 -106 282 -208 376 -217 34 -3 34 -3 43 47 10 63 1 213 -18
308 -19 93 -83 219 -146 290 -98 110 -379 267 -404 226z"/>
<path d="M4205 6676 c-121 -38 -279 -143 -349 -233 -114 -144 -184 -390 -161
-568 l7 -57 40 6 c57 9 215 72 270 107 164 105 278 325 278 536 0 101 -19 223
-34 222 -6 0 -29 -6 -51 -13z"/>
<path d="M1153 6623 c-49 -34 12 -303 92 -404 91 -116 326 -199 489 -175 l46
7 0 73 c0 238 -140 416 -374 476 -84 21 -235 35 -253 23z"/>
<path d="M5520 6604 c-157 -35 -265 -116 -330 -247 -43 -89 -60 -157 -60 -247
0 -69 2 -70 129 -70 197 0 378 96 451 241 36 69 62 196 58 275 l-3 59 -90 2
c-49 1 -119 -5 -155 -13z"/>
<path d="M2009 6158 c-9 -38 -14 -120 -14 -208 1 -123 4 -157 24 -220 31 -103
72 -171 154 -257 54 -57 88 -82 151 -113 88 -44 213 -83 221 -71 7 12 -38 118
-90 214 -45 84 -118 247 -110 247 3 0 51 -62 109 -138 96 -128 168 -202 195
-202 15 0 15 246 0 308 -23 96 -83 205 -153 280 -56 59 -86 80 -174 126 -111
56 -224 96 -272 96 -25 0 -28 -4 -41 -62z"/>
<path d="M4838 6179 c-102 -15 -181 -40 -268 -85 -178 -91 -288 -245 -326
-454 -14 -78 -19 -212 -8 -223 21 -21 105 56 259 235 55 64 101 115 103 113 6
-6 -62 -131 -138 -255 -83 -134 -124 -209 -117 -216 7 -7 140 24 200 46 265
99 424 402 386 737 -11 98 -15 114 -27 112 -4 -1 -33 -5 -64 -10z"/>
<path d="M935 5930 c-27 -5 -83 -19 -122 -31 -55 -17 -73 -27 -73 -40 0 -60
134 -310 209 -392 130 -141 300 -217 483 -217 69 0 196 23 233 43 18 9 17 12
-20 44 -21 18 -121 81 -222 141 -101 59 -179 108 -173 110 5 2 78 -25 162 -59
166 -68 306 -119 326 -119 18 0 15 13 -19 98 -71 178 -163 284 -311 356 -55
27 -124 52 -170 61 -82 16 -220 18 -303 5z"/>
<path d="M5655 5915 c-68 -15 -130 -38 -195 -74 -69 -37 -180 -157 -224 -240
-38 -72 -79 -181 -72 -188 7 -8 89 19 226 75 200 80 290 112 290 104 0 -5 -73
-49 -162 -99 -155 -87 -297 -180 -298 -195 -1 -19 141 -51 245 -55 135 -6 204
9 322 72 108 57 145 87 211 165 62 74 185 316 180 352 -4 27 -80 61 -187 84
-82 17 -256 17 -336 -1z"/>
<path d="M3772 5578 c-8 -11 -97 -214 -283 -645 -10 -24 -22 -43 -26 -43 -5 0
-21 33 -37 73 -32 83 -166 378 -234 517 l-47 95 -104 3 c-57 1 -108 -1 -113
-6 -6 -6 11 -59 41 -133 28 -68 104 -263 169 -434 65 -170 147 -379 183 -464
68 -164 74 -171 144 -171 53 0 78 32 124 155 23 61 109 277 192 480 176 432
222 553 215 572 -7 18 -209 19 -224 1z"/>
<path d="M884 5065 c-82 -18 -102 -29 -258 -137 -13 -9 54 -96 125 -162 76
-71 128 -101 209 -122 56 -14 79 -15 160 -6 128 15 332 85 354 121 9 15 -68
122 -132 183 -65 62 -132 100 -207 116 -87 19 -186 22 -251 7z"/>
<path d="M1765 5060 c-104 -7 -142 -17 -163 -43 -10 -12 -6 -20 22 -45 61 -54
123 -91 189 -115 159 -58 254 -140 379 -329 408 -616 758 -1345 832 -1733 19
-98 36 -265 36 -352 0 -168 -57 -402 -127 -523 -55 -95 -190 -226 -294 -287
-105 -62 -199 -99 -494 -197 -257 -86 -377 -140 -478 -217 -75 -56 -125 -115
-111 -129 11 -10 338 12 502 35 271 37 520 97 698 168 136 54 206 92 348 191
60 42 111 74 114 72 8 -9 -28 -108 -61 -166 -51 -90 -204 -234 -359 -339 -76
-50 -138 -95 -138 -98 0 -3 69 -3 153 0 173 6 268 27 385 82 75 36 207 122
237 155 16 18 19 17 100 -45 97 -74 197 -124 310 -157 68 -19 103 -23 230 -23
88 0 158 5 169 11 16 10 9 16 -55 52 -139 76 -234 144 -315 226 -66 67 -90
100 -127 177 -55 112 -63 139 -45 139 7 -1 58 -35 113 -76 178 -134 406 -231
723 -308 173 -43 282 -59 557 -86 228 -22 305 -25 305 -12 0 15 -114 119 -171
155 -122 78 -302 153 -532 222 -288 87 -458 175 -583 301 -128 129 -195 265
-230 465 -24 140 -15 421 20 586 91 429 431 1145 819 1728 114 171 221 262
365 313 62 22 158 78 221 129 11 8 -47 54 -78 62 -44 11 -947 24 -1014 15 -27
-4 -51 -13 -54 -20 -3 -8 11 -33 31 -56 42 -49 71 -134 62 -182 -4 -18 -60
-141 -125 -272 -65 -131 -143 -293 -174 -359 -30 -66 -73 -152 -95 -190 -22
-39 -74 -135 -117 -215 -96 -180 -295 -530 -302 -530 -2 0 -51 96 -108 213
-57 116 -144 291 -194 387 -51 96 -139 276 -197 400 -59 124 -139 293 -179
375 -40 83 -76 164 -80 181 -11 54 12 124 61 187 38 47 44 60 34 72 -11 13
-78 15 -464 13 -248 0 -496 -4 -551 -8z"/>
<path d="M5842 5059 c-99 -8 -176 -42 -264 -120 -61 -53 -148 -162 -148 -185
0 -19 83 -59 183 -88 262 -76 395 -47 574 128 51 50 93 96 93 103 0 17 -117
102 -185 134 -67 31 -128 37 -253 28z"/>
<path d="M1350 4463 c-129 -22 -308 -121 -432 -240 -81 -79 -83 -73 57 -185
281 -228 629 -275 930 -127 85 42 155 93 143 104 -19 19 -144 49 -337 81 -118
19 -217 37 -220 41 -5 4 279 0 578 -11 32 -1 47 4 55 16 9 15 2 27 -44 74
-122 124 -268 209 -412 238 -71 15 -253 20 -318 9z"/>
<path d="M5205 4441 c-99 -27 -159 -55 -234 -109 -75 -53 -201 -177 -201 -198
0 -22 44 -27 147 -15 141 15 510 26 498 14 -5 -6 -62 -18 -125 -27 -270 -41
-450 -87 -450 -114 0 -27 232 -135 342 -158 90 -20 292 -13 383 11 79 22 215
86 279 132 83 59 186 156 186 174 0 30 -133 142 -236 199 -155 86 -213 102
-379 107 -115 2 -153 0 -210 -16z"/>
<path d="M4490 3793 c1 -92 22 -227 45 -289 69 -184 234 -298 483 -334 116
-17 116 -18 107 87 -14 174 -69 307 -165 403 -94 94 -213 142 -412 165 l-58 6
0 -38z"/>
<path d="M2225 3805 c-281 -62 -411 -226 -440 -557 l-7 -78 58 0 c146 1 299
60 402 155 104 96 172 269 172 435 l0 60 -62 -1 c-35 -1 -90 -7 -123 -14z"/>
</g>
</svg>
